HIERARCHY
ROOT Hips
{
    OFFSET 0.000000 0.000000 0.000000
    CHANNELS 6 Xposition Yposition Zposition Zrotation Xrotation Yrotation
    JOINT Spine
    {
        OFFSET -0.000000 7.236184 0.000000
        CHANNELS 3 Zrotation Xrotation Yrotation
        JOINT Spine1
        {
            OFFSET -0.000000 20.420147 0.000000
            CHANNELS 3 Zrotation Xrotation Yrotation
            JOINT Neck
            {
                OFFSET -0.000000 20.336288 1.848754
                CHANNELS 3 Zrotation Xrotation Yrotation
                JOINT Head
                {
                    OFFSET -0.000000 12.354461 -1.764923
                    CHANNELS 3 Zrotation Xrotation Yrotation
                    End Site
                    {
                        OFFSET -0.000000 22.061537 0.000000
                    }
                }
            }
            JOINT LeftShoulder
            {
                OFFSET 3.573296 18.396038 -0.314103
                CHANNELS 3 Zrotation Xrotation Yrotation
                JOINT LeftArm
                {
                    OFFSET 10.880760 0.000000 0.000000
                    CHANNELS 3 Zrotation Xrotation Yrotation
                    JOINT LeftForeArm
                    {
                        OFFSET 27.185530 0.000000 0.000000
                        CHANNELS 3 Zrotation Xrotation Yrotation
                        JOINT LeftHand
                        {
                            OFFSET 27.825975 0.000000 0.000000
                            CHANNELS 3 Zrotation Xrotation Yrotation
                            End Site
                            {
                                OFFSET 13.236923 0.000000 0.000000
                            }
                        }
                    }
                }
            }
            JOINT RightShoulder
            {
                OFFSET -3.474926 18.396038 -0.314103
                CHANNELS 3 Zrotation Xrotation Yrotation
                JOINT RightArm
                {
                    OFFSET -10.880760 0.000000 0.000000
                    CHANNELS 3 Zrotation Xrotation Yrotation
                    JOINT RightForeArm
                    {
                        OFFSET -27.185530 0.000000 0.000000
                        CHANNELS 3 Zrotation Xrotation Yrotation
                        JOINT RightHand
                        {
                            OFFSET -27.825975 0.000000 0.000000
                            CHANNELS 3 Zrotation Xrotation Yrotation
                            End Site
                            {
                                OFFSET -13.236923 0.000000 0.000000
                            }
                        }
                    }
                }
            }
        }
    }
    JOINT LeftUpLeg
    {
        OFFSET 8.824615 0.000000 0.000000
        CHANNELS 3 Zrotation Xrotation Yrotation
        JOINT LeftLeg
        {
            OFFSET -0.000000 -35.111282 0.000000
            CHANNELS 3 Zrotation Xrotation Yrotation
            JOINT LeftFoot
            {
                OFFSET -0.000000 -42.324711 0.000000
                CHANNELS 3 Zrotation Xrotation Yrotation
                JOINT LeftToeBase
                {
                    OFFSET -0.000000 -5.735999 13.236923
                    CHANNELS 3 Zrotation Xrotation Yrotation
                    End Site
                    {
                        OFFSET -0.000000 0.000000 3.529846
                    }
                }
            }
        }
    }
    JOINT RightUpLeg
    {
        OFFSET -8.824615 0.000000 0.000000
        CHANNELS 3 Zrotation Xrotation Yrotation
        JOINT RightLeg
        {
            OFFSET -0.000000 -35.111282 0.000000
            CHANNELS 3 Zrotation Xrotation Yrotation
            JOINT RightFoot
            {
                OFFSET -0.000000 -42.324711 0.000000
                CHANNELS 3 Zrotation Xrotation Yrotation
                JOINT RightToeBase
                {
                    OFFSET -0.000000 -5.735999 13.236923
                    CHANNELS 3 Zrotation Xrotation Yrotation
                    End Site
                    {
                        OFFSET -0.000000 0.000000 3.529846
                    }
                }
            }
        }
    }
}
MOTION
Frames:    13
Frame Time:    0.008333
-5.453434    77.664009    111.654816    1.328127    -5.008959    -159.303665    -2.227515    -9.075718    0.098738    0.935232    11.611376    0.180404    -0.659037    4.619998    -7.749512    15.728110    4.303381    -6.341679    4.501124    11.199374    -16.072973    -35.858677    28.396013    -70.409973    2.974495    -40.792412    -122.517952    39.000286    -31.864176    15.907788    0.809520    10.687159    9.432104    58.551025    -2.613985    55.824757    -0.421839    -32.067047    140.019516    -19.977365    -30.164568    -6.027472    7.081794    -29.912752    -0.127888    0.668483    43.587376    12.188272    -11.461108    -12.926491    -13.536844    0.320177    -0.532989    -0.355248    -10.311636    -18.076319    -9.356400    12.982377    45.385654    -15.234023    -4.051230    -22.662708    -31.310560    19.487108    -66.633080    -28.290289    
-5.506391    77.557961    111.685898    1.609421    -4.875245    -157.355591    -2.315777    -9.100706    0.022695    1.190730    11.665728    0.085586    -0.995456    5.359818    -8.056078    16.100155    4.226550    -6.582398    4.639400    10.921064    -15.896435    -35.207623    28.770473    -71.276833    2.502376    -40.262970    -122.233063    39.160698    -31.959547    16.060802    1.013850    11.033791    9.227681    58.463070    -3.923730    54.545746    -0.278014    -30.934786    140.490128    -19.533749    -29.439861    -5.545228    6.696654    -30.585932    -0.644367    1.304469    43.941601    10.736293    -11.534433    -12.938114    -13.858193    0.483264    -0.363558    -0.536033    -10.379445    -17.726591    -9.871915    13.468082    45.609295    -16.104836    -3.951951    -22.819962    -31.502625    19.353029    -66.395058    -27.989918    
-5.564482    77.483719    111.700310    1.887179    -4.717422    -155.370148    -2.421106    -9.122261    -0.050852    1.467517    11.658524    -0.007663    -1.279248    6.218214    -8.357825    16.477636    4.172421    -6.831220    4.825820    10.578100    -15.702387    -34.632278    28.987631    -72.086563    1.987548    -39.674610    -121.921623    39.313614    -32.054276    16.208696    1.197241    11.307483    8.931661    58.171997    -5.340079    53.096687    -0.126783    -29.822851    140.838211    -19.083244    -28.767151    -5.077607    6.269461    -31.180079    -1.179393    1.979652    44.185520    9.221202    -11.597057    -12.903393    -14.166394    0.641198    -0.219274    -0.711025    -10.427084    -17.290030    -10.336023    13.978821    45.727303    -16.992481    -3.845585    -22.911129    -31.665333    19.214890    -66.158653    -27.688503    
-5.629146    77.442619    111.698952    2.164239    -4.535315    -153.341263    -2.536970    -9.142078    -0.119510    1.756383    11.597855    -0.094553    -1.501070    7.179083    -8.660638    16.864876    4.142000    -7.094527    5.061477    10.183275    -15.499395    -34.115559    29.074934    -72.851013    1.439062    -39.051098    -121.572777    39.466206    -32.157112    16.358170    1.352934    11.503213    8.544796    57.651657    -6.842393    51.458019    0.019934    -28.766876    141.065659    -18.613134    -28.151878    -4.611409    5.804593    -31.696945    -1.739937    2.682768    44.319351    7.648828    -11.646862    -12.826988    -14.457414    0.790645    -0.107414    -0.876570    -10.450329    -16.772049    -10.752362    14.512193    45.745884    -17.884905    -3.732119    -22.927412    -31.804596    19.073956    -65.925339    -27.388269    
-5.700344    77.436066    111.683022    2.438328    -4.332672    -151.296646    -2.655361    -9.161311    -0.179968    2.043010    11.492468    -0.170855    -1.649732    8.210479    -8.965369    17.257359    4.133365    -7.373032    5.342474    9.753914    -15.296049    -33.647255    29.059538    -73.568672    0.871404    -38.422218    -121.186142    39.621773    -32.275143    16.512268    1.470267    11.616679    8.078128    56.889072    -8.379189    49.637455    0.144533    -27.820551    141.169907    -18.116089    -27.599131    -4.139656    5.315423    -32.131168    -2.323212    3.387545    44.341747    6.055770    -11.682429    -12.713708    -14.725516    0.926918    -0.037913    -1.027522    -10.445985    -16.188608    -11.117379    15.057552    45.672367    -18.757704    -3.613715    -22.861643    -31.924118    18.933523    -65.700386    -27.095718    
-5.778244    77.463860    111.654190    2.710056    -4.112290    -149.240494    -2.771076    -9.181273    -0.222533    2.319122    11.350023    -0.242540    -1.720821    9.292384    -9.276465    17.654669    4.139902    -7.668865    5.666969    9.301327    -15.096029    -33.212803    28.970596    -74.245537    0.289082    -37.803768    -120.763771    39.781883    -32.414948    16.673969    1.541910    11.649673    7.541160    55.873001    -9.911740    47.626602    0.229468    -27.021051    141.151138    -17.577419    -27.097792    -3.650664    4.811115    -32.485699    -2.931614    4.074300    44.255005    4.463650    -11.705051    -12.566986    -14.971922    1.048963    -0.013042    -1.162760    -10.413262    -15.552108    -11.432622    15.612111    45.516407    -19.600777    -3.491372    -22.709778    -32.029358    18.795042    -65.485748    -26.813337    
-5.862864    77.525620    111.613976    2.980403    -3.877388    -147.173096    -2.880564    -9.203154    -0.266147    2.572726    11.177293    -0.287912    -1.712212    10.409190    -9.598532    18.055868    4.152894    -7.983447    6.033504    8.834053    -14.900516    -32.801937    28.834074    -74.885185    -0.306714    -37.202229    -120.310776    39.942619    -32.580063    16.841986    1.560636    11.605040    6.941483    54.596291    -11.400946    45.415134    0.257161    -26.398081    141.006531    -16.976406    -26.629433    -3.133533    4.300621    -32.764065    -3.567385    4.723893    44.059856    2.891962    -11.717177    -12.388665    -15.199736    1.158015    -0.027687    -1.283674    -10.352625    -14.873950    -11.700881    16.174191    45.286823    -20.407555    -3.365770    -22.469116    -32.124756    18.659536    -65.282272    -26.542397    
-5.952584    77.618912    111.564758    3.245733    -3.635676    -145.128342    -2.980303    -9.227528    -0.293820    2.797510    10.981485    -0.322687    -1.626338    11.529508    -9.929748    18.453108    4.162328    -8.311131    6.432854    8.367911    -14.711990    -32.414097    28.674013    -75.479515    -0.904298    -36.627666    -119.842056    40.092186    -32.765797    17.008753    1.520887    11.487029    6.297996    53.085579    -12.783933    43.034374    0.212590    -25.977470    140.736084    -16.299051    -26.179504    -2.589963    3.801083    -32.967178    -4.220172    5.308576    43.762161    1.383586    -11.721521    -12.183372    -15.409458    1.253298    -0.071311    -1.389403    -10.267495    -14.176539    -11.922398    16.733557    44.996418    -21.161509    -3.239795    -22.144754    -32.212860    18.530241    -65.092308    -26.287933    
-6.048212    77.743568    111.507401    3.510379    -3.388350    -143.081100    -3.070173    -9.255695    -0.310339    2.990647    10.763698    -0.343650    -1.467065    12.657319    -10.276564    18.850590    4.157842    -8.653991    6.866657    7.905617    -14.525401    -32.041035    28.506126    -76.036278    -1.506448    -36.069454    -119.359650    40.217911    -32.968430    17.167135    1.416825    11.296782    5.611866    51.336376    -14.042699    40.454597    0.082909    -25.756701    140.331345    -15.509645    -25.716848    -2.011359    3.315114    -33.102791    -4.895854    5.821105    43.359745    -0.066759    -11.721346    -11.949553    -15.607518    1.336844    -0.135207    -1.482192    -10.159558    -13.461311    -12.104317    17.296124    44.648193    -21.871260    -3.112544    -21.734625    -32.297749    18.406942    -64.909241    -26.046595    
-6.147452    77.895462    111.444298    3.770004    -3.144061    -141.071884    -3.148045    -9.287151    -0.316718    3.145251    10.530020    -0.350805    -1.246280    13.763388    -10.633080    19.241943    4.130734    -9.001925    7.322305    7.464197    -14.339996    -31.688061    28.347433    -76.544991    -2.094319    -35.533298    -118.880013    40.301838    -33.174419    17.301950    1.244666    11.042814    4.906324    49.408279    -15.126292    37.735428    -0.136688    -25.726309    139.794907    -14.597786    -25.225370    -1.414378    2.860439    -33.173767    -5.575496    6.241877    42.862820    -1.423881    -11.719966    -11.692759    -15.793540    1.408066    -0.211432    -1.561371    -10.033782    -12.750631    -12.248580    17.848505    44.254597    -22.524607    -2.986831    -21.251003    -32.378567    18.293156    -64.731430    -25.822296    
-6.250148    78.073143    111.376259    4.026564    -2.905000    -139.093216    -3.214025    -9.321579    -0.313471    3.260128    10.280577    -0.345692    -0.975193    14.847812    -11.000249    19.631702    4.073433    -9.351963    7.797459    7.049062    -14.148781    -31.352942    28.208624    -77.009216    -2.661226    -35.010757    -118.407242    40.330669    -33.372421    17.401409    0.999276    10.732821    4.188344    47.328468    -16.024578    34.887325    -0.448978    -25.857222    139.119934    -13.540492    -24.680622    -0.809311    2.442616    -33.186508    -6.252665    6.569331    42.272831    -2.694251    -11.721370    -11.412605    -15.971963    1.467525    -0.296174    -1.627551    -9.892367    -12.048527    -12.362670    18.388462    43.819241    -23.128410    -2.861439    -20.697407    -32.453167    18.188900    -64.554443    -25.613321    
-6.354805    78.272690    111.304733    4.278231    -2.675668    -137.164368    -3.267743    -9.357727    -0.303156    3.333253    10.018388    -0.328075    -0.667840    15.897930    -11.372708    20.017139    3.981776    -9.696219    8.282974    6.668825    -13.948455    -31.039307    28.099483    -77.424812    -3.192437    -34.500256    -117.950005    40.296108    -33.547279    17.454277    0.679271    10.382874    3.474902    45.154869    -16.723509    31.967085    -0.848334    -26.113480    138.308640    -12.336225    -24.073870    -0.221576    2.071506    -33.146870    -6.910023    6.802204    41.599644    -3.872920    -11.730248    -11.112090    -16.145330    1.514909    -0.386287    -1.680375    -9.738742    -11.366485    -12.453376    18.904243    43.350929    -23.681583    -2.736717    -20.085135    -32.516190    18.094778    -64.378647    -25.420477    
-6.461454    78.492699    111.229980    4.526279    -2.456850    -135.278290    -3.309081    -9.394981    -0.285953    3.363573    9.743555    -0.299800    -0.333782    16.915333    -11.749181    20.399647    3.853960    -10.031712    8.776223    6.323698    -13.733868    -30.747841    28.027319    -77.792015    -3.681512    -33.992798    -117.511040    40.195450    -33.686085    17.454140    0.281295    10.006138    2.772691    42.916687    -17.224333    28.998194    -1.331040    -26.461786    137.352997    -10.977262    -23.397623    0.327348    1.750084    -33.059647    -7.538986    6.945888    40.844013    -4.973895    -11.751873    -10.789427    -16.319450    1.550200    -0.480508    -1.719813    -9.573873    -10.705069    -12.529782    19.389082    42.852211    -24.188442    -2.611893    -19.417597    -32.563889    18.009157    -64.203575    -25.241121    
